<mxfile host="app.diagrams.net" modified="2024-02-12T10:25:32.158Z" agent="Mozilla/5.0 (Windows NT 10.0; Win64; x64) AppleWebKit/537.36 (KHTML, like Gecko) Chrome/120.0.0.0 Safari/537.36 OPR/106.0.0.0" etag="FOBqtBJINzef2qqgb5w7" version="23.1.2" type="gitlab">
  <diagram name="Page-1" id="03018318-947c-dd8e-b7a3-06fadd420f32">
    <mxGraphModel dx="1441" dy="819" grid="1" gridSize="10" guides="1" tooltips="1" connect="1" arrows="1" fold="1" page="1" pageScale="1" pageWidth="1100" pageHeight="850" background="none" math="0" shadow="0">
      <root>
        <mxCell id="0" />
        <mxCell id="1" parent="0" />
        <mxCell id="lokVkErCchEa_lnMMED--32" value="" style="rounded=0;whiteSpace=wrap;html=1;" parent="1" vertex="1">
          <mxGeometry x="20" y="30" width="1060" height="900" as="geometry" />
        </mxCell>
        <mxCell id="677b7b8949515195-1" value="" style="whiteSpace=wrap;html=1;rounded=0;shadow=0;labelBackgroundColor=none;strokeColor=#000000;strokeWidth=1;fillColor=none;fontFamily=Verdana;fontSize=12;fontColor=#000000;align=center;comic=1;" parent="1" vertex="1">
          <mxGeometry x="20" y="130" width="1060" height="800" as="geometry" />
        </mxCell>
        <mxCell id="lokVkErCchEa_lnMMED--4" value="" style="rounded=1;whiteSpace=wrap;html=1;" parent="1" vertex="1">
          <mxGeometry x="150" y="290" width="790" height="400" as="geometry" />
        </mxCell>
        <mxCell id="lokVkErCchEa_lnMMED--92" value="Â© 2023 Edward Tan | All rights reserved." style="rounded=0;whiteSpace=wrap;html=1;" parent="1" vertex="1">
          <mxGeometry x="40" y="840" width="1020" height="60" as="geometry" />
        </mxCell>
        <mxCell id="CWQsY11OtAqy3V1x673w-1" value="LOGO" style="ellipse;whiteSpace=wrap;html=1;aspect=fixed;" parent="1" vertex="1">
          <mxGeometry x="90" y="40" width="80" height="80" as="geometry" />
        </mxCell>
        <mxCell id="CWQsY11OtAqy3V1x673w-4" value="LOGIN" style="rounded=1;whiteSpace=wrap;html=1;" parent="1" vertex="1">
          <mxGeometry x="540" y="620" width="360" height="35" as="geometry" />
        </mxCell>
        <mxCell id="CWQsY11OtAqy3V1x673w-18" value="" style="rounded=1;whiteSpace=wrap;html=1;glass=0;" parent="1" vertex="1">
          <mxGeometry x="150" y="290" width="350" height="400" as="geometry" />
        </mxCell>
        <mxCell id="677b7b8949515195-49" value="&lt;font size=&quot;1&quot; face=&quot;Helvetica&quot;&gt;&lt;b style=&quot;font-size: 20px;&quot;&gt;WELCOME TO VEGG.AI&lt;/b&gt;&lt;/font&gt;" style="text;html=1;points=[];align=center;verticalAlign=top;spacingTop=-4;fontSize=14;fontFamily=Verdana" parent="1" vertex="1">
          <mxGeometry x="220" y="330" width="870" height="50" as="geometry" />
        </mxCell>
        <mxCell id="CWQsY11OtAqy3V1x673w-19" value="Enter your username..." style="rounded=1;whiteSpace=wrap;html=1;align=left;" parent="1" vertex="1">
          <mxGeometry x="540" y="410" width="360" height="35" as="geometry" />
        </mxCell>
        <mxCell id="CWQsY11OtAqy3V1x673w-20" value="Enter your password..." style="rounded=1;whiteSpace=wrap;html=1;align=left;" parent="1" vertex="1">
          <mxGeometry x="540" y="490" width="360" height="35" as="geometry" />
        </mxCell>
        <mxCell id="CWQsY11OtAqy3V1x673w-21" value="&lt;font style=&quot;font-size: 14px;&quot; face=&quot;Helvetica&quot;&gt;Username&lt;/font&gt;" style="text;html=1;points=[];align=left;verticalAlign=top;spacingTop=-4;fontSize=14;fontFamily=Verdana" parent="1" vertex="1">
          <mxGeometry x="540" y="380" width="540" height="50" as="geometry" />
        </mxCell>
        <mxCell id="CWQsY11OtAqy3V1x673w-22" value="&lt;font style=&quot;font-size: 14px;&quot; face=&quot;Helvetica&quot;&gt;Password&lt;/font&gt;" style="text;html=1;points=[];align=left;verticalAlign=top;spacingTop=-4;fontSize=14;fontFamily=Verdana" parent="1" vertex="1">
          <mxGeometry x="540" y="465" width="540" height="50" as="geometry" />
        </mxCell>
        <mxCell id="CWQsY11OtAqy3V1x673w-23" value="&lt;font style=&quot;font-size: 12px;&quot; face=&quot;Helvetica&quot;&gt;Forgot password?&lt;/font&gt;" style="text;html=1;points=[];align=left;verticalAlign=top;spacingTop=-4;fontSize=14;fontFamily=Verdana" parent="1" vertex="1">
          <mxGeometry x="540" y="530" width="540" height="50" as="geometry" />
        </mxCell>
      </root>
    </mxGraphModel>
  </diagram>
</mxfile>
